<svg viewBox="0 0 40 40" fill="none" xmlns="http://www.w3.org/2000/svg">
<path d="M20.005 8.33337C17.0794 8.33334 14.2053 9.10342 11.6717 10.5662C9.13799 12.029 7.03402 14.133 5.57122 16.6667C4.10842 19.2003 3.33834 22.0744 3.33838 25.0001C3.33842 27.9257 4.10858 30.7997 5.57145 33.3334C5.71774 33.5868 5.92818 33.7972 6.1816 33.9435C6.43503 34.0898 6.72251 34.1668 7.01513 34.1667H32.995C33.2876 34.1668 33.5751 34.0898 33.8285 33.9435C34.0819 33.7972 34.2924 33.5868 34.4387 33.3334C35.9015 30.7997 36.6717 27.9257 36.6717 25.0001C36.6718 22.0744 35.9017 19.2003 34.4389 16.6667C32.9761 14.133 30.8721 12.029 28.3384 10.5662C25.8048 9.10342 22.9307 8.33334 20.005 8.33337ZM20.0052 28.3334C19.3459 28.3334 18.7014 28.1379 18.1533 27.7716C17.6051 27.4053 17.1779 26.8847 16.9256 26.2757C16.6733 25.6666 16.6073 24.9963 16.7359 24.3497C16.8645 23.7031 17.182 23.1092 17.6481 22.643C18.1143 22.1768 18.7083 21.8594 19.3549 21.7308C20.0015 21.6021 20.6717 21.6682 21.2808 21.9204C21.8899 22.1727 22.4105 22.6 22.7767 23.1481C23.143 23.6963 23.3385 24.3408 23.3385 25C23.3385 25.8841 22.9873 26.7319 22.3622 27.3571C21.7371 27.9822 20.8892 28.3334 20.0052 28.3334Z" fill="#A5C0F9"/>
</svg>
